#N canvas 983 179 840 737 10;
#X obj 12 104 fad9 17;
#X floatatom 329 577 5 0 0 0 - - -, f 5;
#X floatatom 275 577 5 0 0 0 - - -, f 5;
#X floatatom 437 577 5 0 0 0 - - -, f 5;
#X floatatom 383 577 5 0 0 0 - - -, f 5;
#X floatatom 545 577 5 0 0 0 - - -, f 5;
#X floatatom 491 577 5 0 0 0 - - -, f 5;
#X floatatom 653 577 5 0 0 0 - - -, f 5;
#X floatatom 599 577 5 0 0 0 - - -, f 5;
#X floatatom 707 577 5 0 0 0 - - -, f 5;
#X obj 275 551 r fad_b1;
#X obj 329 551 r fad_b2;
#X obj 383 551 r fad_b3;
#X obj 437 551 r fad_b4;
#X obj 491 551 r fad_b5;
#X obj 545 551 r fad_b6;
#X obj 599 551 r fad_b7;
#X obj 653 551 r fad_b8;
#X obj 707 551 r fad_bV;
#X obj 310 625 r fad_bLoop;
#X obj 383 625 r fad_bRev;
#X obj 450 625 r fad_bFwd;
#X obj 517 625 r fad_bStop;
#X obj 590 625 r fad_bPlay;
#X obj 662 625 r fad_bRec;
#X floatatom 310 653 5 0 0 0 - - -, f 5;
#X floatatom 383 653 5 0 0 0 - - -, f 5;
#X floatatom 450 653 5 0 0 0 - - -, f 5;
#X floatatom 517 653 5 0 0 0 - - -, f 5;
#X floatatom 590 653 5 0 0 0 - - -, f 5;
#X floatatom 662 653 5 0 0 0 - - -, f 5;
#X obj 275 479 r fad_v1;
#X obj 329 479 r fad_v2;
#X obj 383 479 r fad_v3;
#X obj 437 479 r fad_v4;
#X obj 491 479 r fad_v5;
#X obj 545 479 r fad_v6;
#X obj 599 479 r fad_v7;
#X obj 653 479 r fad_v8;
#X obj 707 479 r fad_vV;
#X floatatom 329 508 5 0 0 0 - - -, f 5;
#X floatatom 275 508 5 0 0 0 - - -, f 5;
#X floatatom 437 508 5 0 0 0 - - -, f 5;
#X floatatom 383 508 5 0 0 0 - - -, f 5;
#X floatatom 545 508 5 0 0 0 - - -, f 5;
#X floatatom 491 508 5 0 0 0 - - -, f 5;
#X floatatom 653 508 5 0 0 0 - - -, f 5;
#X floatatom 599 508 5 0 0 0 - - -, f 5;
#X floatatom 707 508 5 0 0 0 - - -, f 5;
#X obj 274 410 r fad_r1;
#X obj 328 410 r fad_r2;
#X obj 382 410 r fad_r3;
#X obj 436 410 r fad_r4;
#X obj 490 410 r fad_r5;
#X obj 544 410 r fad_r6;
#X obj 598 410 r fad_r7;
#X obj 652 410 r fad_r8;
#X obj 706 410 r fad_rV;
#X floatatom 328 439 5 0 0 0 - - -, f 5;
#X floatatom 274 439 5 0 0 0 - - -, f 5;
#X floatatom 436 439 5 0 0 0 - - -, f 5;
#X floatatom 382 439 5 0 0 0 - - -, f 5;
#X floatatom 544 439 5 0 0 0 - - -, f 5;
#X floatatom 490 439 5 0 0 0 - - -, f 5;
#X floatatom 652 439 5 0 0 0 - - -, f 5;
#X floatatom 598 439 5 0 0 0 - - -, f 5;
#X floatatom 706 439 5 0 0 0 - - -, f 5;
#X obj 12 410 r fad_bL;
#X obj 67 410 r fad_Pgr;
#X obj 128 410 r fad_bR;
#X obj 67 479 r fad_h;
#X obj 67 550 r fad_bBnk1;
#X obj 153 550 r fad_bBnk2;
#X floatatom 12 440 5 0 0 0 - - -, f 5;
#X floatatom 67 440 5 0 0 0 - - -, f 5;
#X floatatom 128 440 5 0 0 0 - - -, f 5;
#X floatatom 67 506 5 0 0 0 - - -, f 5;
#X floatatom 67 576 5 0 0 0 - - -, f 5;
#X floatatom 153 576 5 0 0 0 - - -, f 5;
#X text 11 372 Messages mapping:;
#X text 16 10 Omnitronic FAD.9 interface patch;
#X text 16 39 Construction: [fad9 chNum] with chNum the channel number
(probably 17);
#X text 16 78 Dependency: The flatgui library is needed for flatgui/knob
;
#X connect 10 0 2 0;
#X connect 11 0 1 0;
#X connect 12 0 4 0;
#X connect 13 0 3 0;
#X connect 14 0 6 0;
#X connect 15 0 5 0;
#X connect 16 0 8 0;
#X connect 17 0 7 0;
#X connect 18 0 9 0;
#X connect 19 0 25 0;
#X connect 20 0 26 0;
#X connect 21 0 27 0;
#X connect 22 0 28 0;
#X connect 23 0 29 0;
#X connect 24 0 30 0;
#X connect 31 0 41 0;
#X connect 32 0 40 0;
#X connect 33 0 43 0;
#X connect 34 0 42 0;
#X connect 35 0 45 0;
#X connect 36 0 44 0;
#X connect 37 0 47 0;
#X connect 38 0 46 0;
#X connect 39 0 48 0;
#X connect 49 0 59 0;
#X connect 50 0 58 0;
#X connect 51 0 61 0;
#X connect 52 0 60 0;
#X connect 53 0 63 0;
#X connect 54 0 62 0;
#X connect 55 0 65 0;
#X connect 56 0 64 0;
#X connect 57 0 66 0;
#X connect 67 0 73 0;
#X connect 68 0 74 0;
#X connect 69 0 75 0;
#X connect 70 0 76 0;
#X connect 71 0 77 0;
#X connect 72 0 78 0;
